<svg xmlns="http://www.w3.org/2000/svg" viewBox="0 0 814 1000" fill="white">
  <path d="M788.1 340.9c-5.8 4.5-108.2 62.2-108.2 190.5 0 148.4 130.3 200.9 134.2 202.2-.6 3.2-20.7 71.9-68.7 141.9-42.8 61.6-87.5 123.1-155.5 123.1s-85.5-39.5-164-39.5c-76 0-103.7 40.8-165.9 40.8s-105-57.8-155.5-127.4C46 790.7 0 665.6 0 546.8c0-250.9 174.1-383.5 345.7-383.5 91.2 0 167.2 60.6 224.5 60.6 54.8 0 140.8-64.4 243.2-64.4zm-65.5-120.7c37.5-44.7 64.7-107.8 64.7-170.9 0-8.9-.7-17.9-2.2-25.5-60.5 2.4-132.9 40.2-176.4 90.9-33.5 38.2-66.7 101.3-66.7 165.3 0 9.7 1.6 19.4 2.2 22.3 4.2.7 11 1.6 17.8 1.6 53.6 0 120.6-36.1 160.6-83.7z"/>
</svg>
